With: Sylvester Stallone, Jason Statham and Jet Li

Barney Ross leads the "Expendables", a band of highly skilled mercenaries including knife enthusiast Lee Christmas, martial arts expert Yin Yang, heavy weapons specialist Hale Caesar, demolitionist Toll Road and loose-cannon sniper Gunner Jensen. When the group is commissioned by the mysterious Mr. Church to assassinate the merciless dictator of a small South American island, Barney and Lee head to the remote locale to scout out their opposition. Once there, they meet with local rebel Sandra and discover the true nature of the conflict engulfing the city. When they escape the island and Sandra stays behind, Ross must choose to either walk away and save his own life - or attempt a suicidal rescue mission that might just save his soul.

General:

Complete name                    : The Expendables.avi
Format                           : AVI
Format/Info                      : Audio Video Interleave
File size                        : 1.43 GiB
Duration                         : 1h 39mn
Overall bit rate                 : 2 064 Kbps

Video:

Format                           : MPEG-4 Visual
Format profile                   : Simple@L3
Format settings, BVOP            : No
Format settings, QPel            : No
Format settings, GMC             : No warppoints
Format settings, Matrix          : Default (H.263)
Codec ID                         : XVID
Codec ID/Hint                    : XviD
Duration                         : 1h 39mn
Bit rate                         : 1 605 Kbps
Width                            : 720 pixels
Height                           : 304 pixels
Display aspect ratio             : 2.35:1
Frame rate                       : 25.000 fps
Color space                      : YUV
Chroma subsampling               : 4:2:0
Bit depth                        : 8 bits
Scan type                        : Progressive
Bits/(Pixel*Frame)               : 0.293
Stream size                      : 1.11 GiB (78%)
Writing library                  : XviD 1.1.2 (UTC 2006-11-01)

Audio:

Format                           : AC-3
Format/Info                      : Audio Coding 3
Mode extension                   : CM (complete main)
Codec ID                         : 2000
Duration                         : 1h 39mn
Bit rate mode                    : Constant
Bit rate                         : 448 Kbps
Channel(s)                       : 6 channels
Channel positions                : Front: L C R, Side: L R, LFE
Sampling rate                    : 48.0 KHz
Bit depth                        : 16 bits
Stream size                      : 318 MiB (22%)
Alignment                        : Aligned on interleaves
Interleave, duration             : 32 ms (0.80 video frame)